<svg xmlns="http://www.w3.org/2000/svg" viewBox="0 0 512 512"><circle cx="256" cy="256" r="256" fill="#F91"/><path d="M256 0c-11.317 0-22.46.744-33.39 2.167C348.215 18.53 445.216 125.933 445.216 256s-97.002 237.47-222.61 253.833C233.54 511.256 244.684 512 256 512c141.385 0 256-114.616 256-256S397.385 0 256 0z" fill="#ED8800"/><g fill="#FCFCFC"><path d="M155.826 401.252c-24.856 0-45.078-20.222-45.078-45.078s20.222-45.078 45.078-45.078 45.078 20.222 45.078 45.078-20.22 45.078-45.078 45.078zM249.878 387.908v-10.04c0-63.925-51.82-115.745-115.744-115.745h-10.04c-1.224 0-2.215-.992-2.215-2.214v-57.903c0-1.223.99-2.214 2.213-2.214h10.04c98.35 0 178.076 79.727 178.076 178.075v10.04c0 1.224-.993 2.215-2.215 2.215h-57.902c-1.223 0-2.215-.993-2.215-2.215z"/><path d="M361.183 387.908v-10.04c0-125.396-101.653-227.05-227.05-227.05h-10.04c-1.223 0-2.214-.992-2.214-2.214V90.7c0-1.222.99-2.213 2.213-2.213h12.255c76.705 0 148.818 29.87 203.057 84.108 54.24 54.24 84.108 126.352 84.108 203.057v12.256c0 1.223-.992 2.214-2.214 2.214h-57.903c-1.223 0-2.214-.992-2.214-2.214z"/></g></svg>